%TF.GenerationSoftware,KiCad,Pcbnew,(6.0.5)*%
%TF.CreationDate,2022-06-15T22:45:41+02:00*%
%TF.ProjectId,picoESP12F,7069636f-4553-4503-9132-462e6b696361,rev?*%
%TF.SameCoordinates,Original*%
%TF.FileFunction,Copper,L1,Top*%
%TF.FilePolarity,Positive*%
%FSLAX46Y46*%
G04 Gerber Fmt 4.6, Leading zero omitted, Abs format (unit mm)*
G04 Created by KiCad (PCBNEW (6.0.5)) date 2022-06-15 22:45:41*
%MOMM*%
%LPD*%
G01*
G04 APERTURE LIST*
G04 Aperture macros list*
%AMRoundRect*
0 Rectangle with rounded corners*
0 $1 Rounding radius*
0 $2 $3 $4 $5 $6 $7 $8 $9 X,Y pos of 4 corners*
0 Add a 4 corners polygon primitive as box body*
4,1,4,$2,$3,$4,$5,$6,$7,$8,$9,$2,$3,0*
0 Add four circle primitives for the rounded corners*
1,1,$1+$1,$2,$3*
1,1,$1+$1,$4,$5*
1,1,$1+$1,$6,$7*
1,1,$1+$1,$8,$9*
0 Add four rect primitives between the rounded corners*
20,1,$1+$1,$2,$3,$4,$5,0*
20,1,$1+$1,$4,$5,$6,$7,0*
20,1,$1+$1,$6,$7,$8,$9,0*
20,1,$1+$1,$8,$9,$2,$3,0*%
G04 Aperture macros list end*
%TA.AperFunction,SMDPad,CuDef*%
%ADD10R,0.900000X1.000000*%
%TD*%
%TA.AperFunction,SMDPad,CuDef*%
%ADD11RoundRect,0.250000X-0.312500X-0.625000X0.312500X-0.625000X0.312500X0.625000X-0.312500X0.625000X0*%
%TD*%
%TA.AperFunction,SMDPad,CuDef*%
%ADD12RoundRect,0.250000X0.312500X0.625000X-0.312500X0.625000X-0.312500X-0.625000X0.312500X-0.625000X0*%
%TD*%
%TA.AperFunction,SMDPad,CuDef*%
%ADD13RoundRect,0.150000X-0.512500X-0.150000X0.512500X-0.150000X0.512500X0.150000X-0.512500X0.150000X0*%
%TD*%
%TA.AperFunction,SMDPad,CuDef*%
%ADD14R,2.500000X1.000000*%
%TD*%
%TA.AperFunction,SMDPad,CuDef*%
%ADD15R,1.000000X1.800000*%
%TD*%
%TA.AperFunction,ComponentPad*%
%ADD16O,1.700000X1.700000*%
%TD*%
%TA.AperFunction,ComponentPad*%
%ADD17R,1.700000X1.700000*%
%TD*%
%TA.AperFunction,SMDPad,CuDef*%
%ADD18RoundRect,0.250000X-0.475000X0.250000X-0.475000X-0.250000X0.475000X-0.250000X0.475000X0.250000X0*%
%TD*%
%TA.AperFunction,ViaPad*%
%ADD19C,0.600000*%
%TD*%
%TA.AperFunction,Conductor*%
%ADD20C,0.200000*%
%TD*%
G04 APERTURE END LIST*
D10*
%TO.P,SW_BOOT,1,1*%
%TO.N,GND*%
X150350000Y-84544000D03*
X154450000Y-84544000D03*
%TO.P,SW_BOOT,2,2*%
%TO.N,Net-(R4-Pad1)*%
X154450000Y-86144000D03*
X150350000Y-86144000D03*
%TD*%
%TO.P,SW_RST,1,1*%
%TO.N,Net-(R1-Pad2)*%
X150350000Y-77432000D03*
X154450000Y-77432000D03*
%TO.P,SW_RST,2,2*%
%TO.N,GND*%
X154450000Y-79032000D03*
X150350000Y-79032000D03*
%TD*%
D11*
%TO.P,R4,1*%
%TO.N,Net-(R4-Pad1)*%
X143825500Y-88392000D03*
%TO.P,R4,2*%
%TO.N,+3V3*%
X146750500Y-88392000D03*
%TD*%
D12*
%TO.P,R3,1*%
%TO.N,GND*%
X146750500Y-90932000D03*
%TO.P,R3,2*%
%TO.N,Net-(R3-Pad2)*%
X143825500Y-90932000D03*
%TD*%
%TO.P,R2,1*%
%TO.N,Net-(R2-Pad1)*%
X160974500Y-90932000D03*
%TO.P,R2,2*%
%TO.N,+3V3*%
X158049500Y-90932000D03*
%TD*%
D11*
%TO.P,R1,1*%
%TO.N,+3V3*%
X158049500Y-88392000D03*
%TO.P,R1,2*%
%TO.N,Net-(R1-Pad2)*%
X160974500Y-88392000D03*
%TD*%
D13*
%TO.P,U2,1,IN*%
%TO.N,+5V*%
X150246500Y-69154000D03*
%TO.P,U2,2,GND*%
%TO.N,GND*%
X150246500Y-70104000D03*
%TO.P,U2,3,EN*%
%TO.N,+5V*%
X150246500Y-71054000D03*
%TO.P,U2,4,BP*%
%TO.N,unconnected-(U2-Pad4)*%
X152521500Y-71054000D03*
%TO.P,U2,5,OUT*%
%TO.N,+3V3*%
X152521500Y-69154000D03*
%TD*%
D14*
%TO.P,U1,22,GPIO1/TXD*%
%TO.N,TXD0*%
X144780000Y-110180000D03*
%TO.P,U1,21,GPIO3/RXD*%
%TO.N,RXD0*%
X144780000Y-108180000D03*
%TO.P,U1,20,GPIO5*%
%TO.N,unconnected-(U1-Pad20)*%
X144780000Y-106180000D03*
%TO.P,U1,19,GPIO4*%
%TO.N,unconnected-(U1-Pad19)*%
X144780000Y-104180000D03*
%TO.P,U1,18,GPIO0*%
%TO.N,Net-(R4-Pad1)*%
X144780000Y-102180000D03*
%TO.P,U1,17,GPIO2*%
%TO.N,unconnected-(U1-Pad17)*%
X144780000Y-100180000D03*
%TO.P,U1,16,GPIO15*%
%TO.N,Net-(R3-Pad2)*%
X144780000Y-98180000D03*
%TO.P,U1,15,GND*%
%TO.N,GND*%
X144780000Y-96180000D03*
D15*
%TO.P,U1,14,SCLK*%
%TO.N,unconnected-(U1-Pad14)*%
X147380000Y-94680000D03*
%TO.P,U1,13,MOSI*%
%TO.N,unconnected-(U1-Pad13)*%
X149380000Y-94680000D03*
%TO.P,U1,12,GPIO10*%
%TO.N,unconnected-(U1-Pad12)*%
X151380000Y-94680000D03*
%TO.P,U1,11,GPIO9*%
%TO.N,unconnected-(U1-Pad11)*%
X153380000Y-94680000D03*
%TO.P,U1,10,MISO*%
%TO.N,unconnected-(U1-Pad10)*%
X155380000Y-94680000D03*
%TO.P,U1,9,CS0*%
%TO.N,unconnected-(U1-Pad9)*%
X157380000Y-94680000D03*
D14*
%TO.P,U1,8,VCC*%
%TO.N,+3V3*%
X159980000Y-96180000D03*
%TO.P,U1,7,GPIO13*%
%TO.N,unconnected-(U1-Pad7)*%
X159980000Y-98180000D03*
%TO.P,U1,6,GPIO12*%
%TO.N,unconnected-(U1-Pad6)*%
X159980000Y-100180000D03*
%TO.P,U1,5,GPIO14*%
%TO.N,unconnected-(U1-Pad5)*%
X159980000Y-102180000D03*
%TO.P,U1,4,GPIO16*%
%TO.N,unconnected-(U1-Pad4)*%
X159980000Y-104180000D03*
%TO.P,U1,3,EN*%
%TO.N,Net-(R2-Pad1)*%
X159980000Y-106180000D03*
%TO.P,U1,2,ADC*%
%TO.N,unconnected-(U1-Pad2)*%
X159980000Y-108180000D03*
%TO.P,U1,1,~{RST}*%
%TO.N,Net-(R1-Pad2)*%
X159980000Y-110180000D03*
%TD*%
D16*
%TO.P,J2,6,Pin_6*%
%TO.N,unconnected-(J2-Pad6)*%
X161036000Y-82296000D03*
%TO.P,J2,5,Pin_5*%
%TO.N,unconnected-(J2-Pad5)*%
X161036000Y-79756000D03*
%TO.P,J2,4,Pin_4*%
%TO.N,unconnected-(J2-Pad4)*%
X161036000Y-77216000D03*
%TO.P,J2,3,Pin_3*%
%TO.N,unconnected-(J2-Pad3)*%
X161036000Y-74676000D03*
%TO.P,J2,2,Pin_2*%
%TO.N,TXD0*%
X161036000Y-72136000D03*
D17*
%TO.P,J2,1,Pin_1*%
%TO.N,RXD0*%
X161036000Y-69596000D03*
%TD*%
D16*
%TO.P,J1,6,Pin_6*%
%TO.N,unconnected-(J1-Pad6)*%
X143256000Y-82296000D03*
%TO.P,J1,5,Pin_5*%
%TO.N,unconnected-(J1-Pad5)*%
X143256000Y-79756000D03*
%TO.P,J1,4,Pin_4*%
%TO.N,unconnected-(J1-Pad4)*%
X143256000Y-77216000D03*
%TO.P,J1,3,Pin_3*%
%TO.N,GND*%
X143256000Y-74676000D03*
%TO.P,J1,2,Pin_2*%
%TO.N,unconnected-(J1-Pad2)*%
X143256000Y-72136000D03*
D17*
%TO.P,J1,1,Pin_1*%
%TO.N,+5V*%
X143256000Y-69596000D03*
%TD*%
D18*
%TO.P,C2,1*%
%TO.N,+3V3*%
X154940000Y-69154000D03*
%TO.P,C2,2*%
%TO.N,GND*%
X154940000Y-71054000D03*
%TD*%
%TO.P,C1,1*%
%TO.N,+5V*%
X147320000Y-69220000D03*
%TO.P,C1,2*%
%TO.N,GND*%
X147320000Y-71120000D03*
%TD*%
D19*
%TO.N,GND*%
X148844000Y-84836000D03*
X148844000Y-89408000D03*
%TO.N,Net-(R1-Pad2)*%
X159512000Y-85852000D03*
X162560000Y-85852000D03*
%TO.N,TXD0*%
X142748000Y-110236000D03*
%TO.N,RXD0*%
X142748000Y-108204000D03*
%TD*%
D20*
%TO.N,Net-(R3-Pad2)*%
X142748000Y-90932000D02*
X143825500Y-90932000D01*
X142748000Y-98044000D02*
X142748000Y-90932000D01*
X142884000Y-98180000D02*
X142748000Y-98044000D01*
X144780000Y-98180000D02*
X142884000Y-98180000D01*
%TO.N,GND*%
X146750500Y-90932000D02*
X148844000Y-90932000D01*
X148844000Y-92456000D02*
X148844000Y-90932000D01*
X148844000Y-90932000D02*
X148844000Y-89408000D01*
%TO.N,+3V3*%
X156464000Y-90932000D02*
X158049500Y-90932000D01*
X156464000Y-90932000D02*
X156464000Y-88392000D01*
X156464000Y-92456000D02*
X156464000Y-90932000D01*
X156464000Y-88392000D02*
X158049500Y-88392000D01*
X146750500Y-88392000D02*
X156464000Y-88392000D01*
X156464000Y-88392000D02*
X156464000Y-86868000D01*
X156464000Y-86868000D02*
X157988000Y-86868000D01*
X157988000Y-92456000D02*
X156464000Y-92456000D01*
%TO.N,GND*%
X148844000Y-81788000D02*
X147320000Y-81788000D01*
X148844000Y-84836000D02*
X148844000Y-81788000D01*
X155956000Y-81788000D02*
X148844000Y-81788000D01*
%TO.N,Net-(R4-Pad1)*%
X141732000Y-86868000D02*
X141732000Y-88392000D01*
X142456000Y-86144000D02*
X141732000Y-86868000D01*
X150350000Y-86144000D02*
X142456000Y-86144000D01*
%TO.N,GND*%
X144780000Y-92456000D02*
X148844000Y-92456000D01*
X144780000Y-96180000D02*
X144780000Y-92456000D01*
%TO.N,Net-(R4-Pad1)*%
X141732000Y-88392000D02*
X143825500Y-88392000D01*
X142312000Y-102180000D02*
X141732000Y-101600000D01*
X141732000Y-101600000D02*
X141732000Y-88392000D01*
X144800000Y-102180000D02*
X142312000Y-102180000D01*
%TO.N,Net-(R1-Pad2)*%
X162560000Y-88392000D02*
X162560000Y-85852000D01*
%TO.N,Net-(R2-Pad1)*%
X162052000Y-90932000D02*
X160974500Y-90932000D01*
X162052000Y-106172000D02*
X162052000Y-90932000D01*
%TO.N,Net-(R1-Pad2)*%
X162560000Y-88392000D02*
X160974500Y-88392000D01*
X162560000Y-109728000D02*
X162560000Y-88392000D01*
%TO.N,+3V3*%
X158496000Y-69088000D02*
X155006000Y-69088000D01*
X161036000Y-84328000D02*
X158496000Y-84328000D01*
X155006000Y-69088000D02*
X154940000Y-69154000D01*
X157988000Y-86868000D02*
X161036000Y-86868000D01*
X161036000Y-86868000D02*
X161036000Y-84328000D01*
X158496000Y-84328000D02*
X158496000Y-69088000D01*
X158984000Y-93452000D02*
X157988000Y-92456000D01*
X160000000Y-93452000D02*
X158984000Y-93452000D01*
%TO.N,Net-(R1-Pad2)*%
X155300000Y-77432000D02*
X156000000Y-76732000D01*
X154450000Y-77432000D02*
X155300000Y-77432000D01*
%TO.N,GND*%
X149500000Y-79032000D02*
X148800000Y-79732000D01*
X150350000Y-79032000D02*
X149500000Y-79032000D01*
X155300000Y-84544000D02*
X156000000Y-83844000D01*
X154450000Y-84544000D02*
X155300000Y-84544000D01*
X147320000Y-79756000D02*
X147344000Y-79732000D01*
X156000000Y-81832000D02*
X155956000Y-81788000D01*
X147320000Y-81788000D02*
X147320000Y-79756000D01*
X156000000Y-83844000D02*
X156000000Y-81832000D01*
X148844000Y-74168000D02*
X148844000Y-72136000D01*
X147320000Y-79756000D02*
X147320000Y-75692000D01*
X147320000Y-75692000D02*
X148844000Y-74168000D01*
X148800000Y-79732000D02*
X147344000Y-79732000D01*
%TO.N,+3V3*%
X160000000Y-96180000D02*
X160000000Y-93452000D01*
%TO.N,Net-(R2-Pad1)*%
X160758000Y-106172000D02*
X162052000Y-106172000D01*
X160750000Y-106180000D02*
X160758000Y-106172000D01*
X160000000Y-106180000D02*
X160750000Y-106180000D01*
%TO.N,Net-(R1-Pad2)*%
X157964000Y-76732000D02*
X156000000Y-76732000D01*
X157988000Y-76708000D02*
X157964000Y-76732000D01*
X157988000Y-85344000D02*
X157988000Y-76708000D01*
X159512000Y-85852000D02*
X158496000Y-85852000D01*
X158496000Y-85852000D02*
X157988000Y-85344000D01*
X162052000Y-110236000D02*
X162560000Y-109728000D01*
X161996000Y-110180000D02*
X162052000Y-110236000D01*
X160000000Y-110180000D02*
X161996000Y-110180000D01*
%TO.N,TXD0*%
X142804000Y-110180000D02*
X142748000Y-110236000D01*
X144800000Y-110180000D02*
X142804000Y-110180000D01*
%TO.N,RXD0*%
X142772000Y-108180000D02*
X142748000Y-108204000D01*
X144800000Y-108180000D02*
X142772000Y-108180000D01*
%TO.N,GND*%
X148844000Y-72136000D02*
X148844000Y-71120000D01*
X154940000Y-72136000D02*
X148844000Y-72136000D01*
X154940000Y-71054000D02*
X154940000Y-72136000D01*
%TO.N,+3V3*%
X152521500Y-69154000D02*
X154940000Y-69154000D01*
%TO.N,+5V*%
X151384000Y-71120000D02*
X151384000Y-69088000D01*
X151318000Y-71054000D02*
X151384000Y-71120000D01*
X151384000Y-69088000D02*
X150312500Y-69088000D01*
X150312500Y-69088000D02*
X150246500Y-69154000D01*
X150246500Y-71054000D02*
X151318000Y-71054000D01*
%TO.N,GND*%
X148844000Y-70104000D02*
X150246500Y-70104000D01*
X148844000Y-71120000D02*
X148844000Y-70104000D01*
X147386000Y-71120000D02*
X148844000Y-71120000D01*
X147320000Y-71054000D02*
X147386000Y-71120000D01*
%TO.N,+5V*%
X148778000Y-69154000D02*
X150246500Y-69154000D01*
X147320000Y-69154000D02*
X148778000Y-69154000D01*
%TO.N,GND*%
X145354000Y-71054000D02*
X147320000Y-71054000D01*
X145288000Y-71120000D02*
X145354000Y-71054000D01*
X145288000Y-74676000D02*
X145288000Y-71120000D01*
X143256000Y-74676000D02*
X145288000Y-74676000D01*
%TO.N,+5V*%
X146878000Y-69596000D02*
X147320000Y-69154000D01*
X143256000Y-69596000D02*
X146878000Y-69596000D01*
%TD*%
M02*
